<?xml version="1.0" standalone="no"?>
<!DOCTYPE svg PUBLIC "-//W3C//DTD SVG 20010904//EN"
 "http://www.w3.org/TR/2001/REC-SVG-20010904/DTD/svg10.dtd">
<svg version="1.0" xmlns="http://www.w3.org/2000/svg"
 width="992.000000pt" height="992.000000pt" viewBox="0 0 992.000000 992.000000"
 preserveAspectRatio="xMidYMid meet">
<metadata>
Created by potrace 1.14, written by Peter Selinger 2001-2017
</metadata>
<g transform="translate(0.000000,992.000000) scale(0.100000,-0.100000)"
fill="#000000" stroke="none">
<path d="M2175 7495 c-71 -18 -175 -68 -340 -163 -1578 -904 -1611 -924 -1680
-1004 -55 -65 -103 -156 -124 -241 -24 -92 -25 -149 -21 -1682 1 -536 4 -567
66 -693 55 -113 129 -181 319 -294 145 -86 328 -191 445 -256 25 -14 167 -95
315 -182 855 -497 936 -541 1048 -560 155 -27 279 7 510 144 51 29 187 108
302 174 116 66 266 152 335 192 69 40 139 81 155 90 17 10 146 85 289 169 142
83 260 151 261 151 11 0 269 159 305 188 98 79 151 156 191 277 l24 70 2 1035
c1 622 -2 1062 -7 1103 -25 170 -111 315 -242 404 -23 17 -155 94 -293 173
-137 78 -254 146 -260 150 -9 7 -311 181 -995 574 -139 80 -275 151 -315 164
-90 30 -210 37 -290 17z m669 -822 c-13 -43 -135 -413 -272 -823 -137 -410
-257 -770 -266 -801 l-16 -57 -92 -48 c-51 -26 -120 -65 -153 -87 -74 -50
-298 -232 -344 -281 -43 -44 -53 -45 -47 -3 3 17 8 64 11 102 3 39 8 93 10
120 3 28 9 104 15 170 6 66 13 140 15 165 2 25 7 79 10 120 3 41 7 95 10 120
3 25 7 72 10 105 3 33 9 112 15 175 5 63 12 147 16 185 3 39 7 81 9 95 2 14 7
68 10 121 l7 97 -98 57 c-334 195 -339 198 -319 206 11 4 115 29 230 54 210
46 1258 282 1262 284 1 0 -9 -34 -23 -76z m-1184 -964 c-12 -90 -23 -177 -25
-194 -3 -16 -14 -106 -25 -200 -11 -93 -25 -199 -30 -235 -5 -36 -12 -85 -15
-110 -5 -48 -13 -114 -21 -169 -28 -211 -74 -605 -72 -612 2 -5 88 78 192 186
133 138 223 221 306 284 300 226 576 358 870 417 90 18 292 24 395 12 141 -17
311 -73 422 -140 68 -41 165 -142 197 -206 51 -103 61 -149 60 -292 -2 -284
-70 -419 -353 -701 -162 -161 -196 -190 -322 -275 -85 -56 -215 -121 -225
-112 -2 2 6 37 16 78 57 218 -19 409 -198 499 -76 38 -179 69 -272 80 -70 8
-321 7 -365 -2 -11 -3 -45 -8 -75 -12 -390 -50 -854 -292 -1182 -614 -59 -58
-108 -105 -108 -104 0 2 9 29 19 60 26 79 159 484 346 1058 86 264 160 491
165 505 44 128 310 951 310 960 0 8 2 11 5 8 3 -3 -4 -79 -15 -169z"/>
<path d="M9691 6588 c-89 -15 -145 -84 -144 -178 0 -72 34 -129 96 -159 166
-80 332 101 237 261 -35 60 -110 90 -189 76z m122 -70 c66 -59 66 -169 -1
-214 -101 -68 -222 -8 -222 111 0 79 58 135 141 135 37 0 52 -6 82 -32z"/>
<path d="M9672 6512 c-22 -3 -23 -6 -20 -95 3 -84 5 -92 23 -92 15 0 21 8 23
33 5 50 38 38 56 -20 3 -11 15 -18 31 -18 31 0 34 27 6 61 -18 23 -18 24 -1
46 19 24 17 55 -4 72 -13 11 -79 18 -114 13z m78 -56 c0 -13 -20 -26 -41 -26
-5 0 -9 9 -9 20 0 15 7 20 25 20 15 0 25 -6 25 -14z"/>
<path d="M9129 6268 c0 -2 -1 -200 -2 -441 -2 -382 0 -437 13 -438 42 -3 146
-4 156 -1 7 2 11 135 11 442 l0 440 -89 0 c-48 0 -88 -1 -89 -2z"/>
<path d="M5060 5805 l0 -415 23 -1 c103 -5 501 -3 510 3 13 8 18 137 6 153 -4
6 -75 10 -178 10 l-171 -1 0 333 0 333 -95 0 -95 0 0 -415z"/>
<path d="M5913 6026 c-60 -20 -107 -51 -152 -102 -53 -60 -75 -128 -73 -228 0
-67 5 -88 32 -142 71 -146 239 -211 413 -160 55 16 137 68 137 87 0 6 -21 33
-47 60 -41 44 -48 48 -63 34 -72 -65 -214 -59 -271 13 -42 54 -35 56 215 55
l229 0 -5 96 c-4 71 -10 107 -26 137 -26 51 -91 110 -150 136 -57 26 -181 33
-239 14z m175 -156 c30 -19 67 -78 55 -90 -9 -9 -273 -7 -273 3 0 24 38 69 75
87 51 25 101 25 143 0z"/>
<path d="M6739 6026 c-20 -7 -50 -22 -67 -34 -38 -28 -38 -28 -37 6 l0 27 -90
3 -90 3 1 -313 c0 -173 3 -318 6 -323 5 -8 83 -11 159 -6 14 1 16 22 15 174
-1 184 5 235 32 272 31 43 105 60 151 36 36 -19 44 -74 44 -283 l0 -198 26 -1
c29 -2 130 -1 147 0 6 1 10 69 11 201 0 194 1 200 24 234 53 77 156 79 195 3
14 -26 17 -66 17 -234 1 -134 5 -203 11 -204 16 -1 128 -2 152 0 22 1 22 2 20
234 -1 231 -2 233 -29 287 -75 152 -284 173 -418 43 -34 -32 -38 -33 -43 -16
-9 27 -60 71 -102 89 -41 17 -87 17 -135 0z"/>
<path d="M8583 6025 c-59 -18 -106 -49 -152 -101 -118 -134 -95 -374 46 -477
91 -66 210 -87 319 -54 58 17 132 61 141 82 3 9 -14 35 -43 65 -42 44 -49 48
-64 35 -27 -25 -92 -47 -137 -47 -71 0 -130 36 -151 92 l-10 25 234 -1 234 -1
0 72 c0 143 -53 236 -167 291 -64 32 -181 41 -250 19z m166 -149 c35 -18 50
-36 60 -73 l8 -29 -138 0 c-77 -1 -139 1 -139 3 0 2 6 19 14 37 25 61 131 94
195 62z"/>
<path d="M7620 5821 c0 -116 5 -233 11 -260 23 -107 116 -181 231 -182 65 -1
95 10 141 51 l36 31 3 -38 3 -38 83 0 c65 0 86 3 91 15 4 8 7 152 6 320 l-1
305 -92 3 -92 3 0 -197 c0 -158 -3 -202 -16 -229 -39 -83 -162 -96 -201 -21
-14 26 -17 65 -18 236 l-1 205 -92 3 -92 3 0 -210z"/>
<path d="M7122 4758 l3 -442 78 -1 c44 0 83 2 87 5 5 3 10 96 12 207 3 186 5
204 24 230 53 71 160 74 195 4 9 -18 15 -90 19 -236 l5 -209 78 -1 c44 0 83 3
89 6 6 4 8 93 6 240 -3 219 -5 237 -25 275 -71 133 -234 174 -350 88 -17 -13
-34 -24 -37 -24 -3 0 -6 68 -6 150 l0 150 -90 0 -90 0 2 -442z"/>
<path d="M8618 5193 c-7 -14 -2 -858 4 -868 5 -9 96 -12 164 -6 7 1 10 137 10
441 l0 440 -87 0 c-48 0 -89 -3 -91 -7z"/>
<path d="M5062 4733 l3 -418 220 1 c138 1 237 6 265 13 64 18 115 54 144 103
65 114 31 245 -79 298 l-45 22 31 21 c60 41 74 70 74 155 0 69 -3 81 -30 120
-20 27 -49 52 -85 70 -54 27 -58 27 -278 30 l-222 4 2 -419z m405 223 c19 -22
23 -36 18 -63 -3 -20 -8 -40 -11 -45 -12 -18 -60 -30 -141 -34 l-83 -3 0 91 0
90 96 -4 c91 -4 98 -6 121 -32z m-14 -300 c65 -10 91 -52 74 -118 -12 -44 -54
-59 -173 -62 l-104 -2 0 92 c0 50 2 93 4 95 7 6 146 3 199 -5z"/>
<path d="M6628 5138 c-2 -7 -3 -50 -3 -95 l2 -83 -39 0 -38 0 0 -65 0 -65 38
0 37 0 2 -177 c1 -138 5 -186 17 -215 51 -118 186 -163 310 -102 30 15 57 33
60 41 3 8 -8 41 -25 74 -29 56 -33 59 -49 44 -9 -9 -31 -20 -48 -25 -25 -7
-36 -4 -57 12 -25 19 -25 20 -25 184 l0 164 74 0 c50 0 75 4 78 13 3 10 3 83
-1 110 -1 4 -35 7 -76 7 l-75 0 0 95 0 95 -89 0 c-62 0 -90 -4 -93 -12z"/>
<path d="M6075 4961 c-141 -34 -234 -147 -243 -293 -8 -133 28 -222 119 -292
121 -93 323 -90 433 7 l36 32 -46 48 c-25 26 -50 47 -56 47 -5 0 -23 -9 -39
-21 -78 -55 -217 -32 -258 45 -8 14 -11 29 -8 33 4 3 108 6 232 6 200 0 225 1
226 16 4 49 -3 151 -13 181 -46 143 -221 230 -383 191z m140 -155 c31 -14 75
-66 75 -91 0 -7 -52 -11 -140 -11 -77 0 -140 2 -140 4 0 2 7 19 16 37 17 38
81 75 127 75 15 0 43 -6 62 -14z"/>
<path d="M8075 4957 c-187 -62 -273 -239 -213 -436 49 -159 237 -250 420 -201
43 12 148 74 148 88 0 4 -22 32 -48 61 -35 38 -51 50 -57 41 -4 -7 -28 -21
-53 -32 -77 -34 -166 -22 -214 30 -26 29 -42 61 -30 63 4 0 108 1 232 2 l225
2 -1 90 c0 75 -4 98 -25 140 -29 58 -110 128 -166 145 -60 18 -173 21 -218 7z
m159 -152 c32 -15 66 -60 66 -88 0 -11 -24 -14 -135 -13 -146 0 -151 2 -119
52 37 56 125 79 188 49z"/>
<path d="M5150 3963 c-51 -15 -80 -51 -80 -100 0 -26 46 -60 102 -77 63 -18
81 -46 47 -70 -22 -15 -82 -7 -102 13 -16 16 -31 13 -45 -9 -11 -18 -8 -22 28
-40 107 -55 220 10 184 105 -6 16 -52 44 -82 50 -50 10 -72 25 -72 50 0 17 6
26 18 27 9 0 24 2 32 3 8 1 30 -4 47 -11 29 -12 34 -11 43 5 7 13 6 22 -3 29
-22 17 -91 32 -117 25z"/>
<path d="M5570 3960 c-101 -18 -155 -125 -109 -217 27 -52 63 -76 124 -81 89
-7 159 50 168 136 10 102 -79 180 -183 162z m103 -81 c39 -42 38 -100 -2 -140
-29 -29 -42 -33 -91 -29 -59 4 -100 88 -72 145 34 69 112 80 165 24z"/>
<path d="M7172 3956 c-108 -37 -140 -161 -63 -248 36 -40 41 -42 102 -45 51
-3 70 0 97 16 30 19 32 25 32 74 0 49 -2 53 -25 55 -23 2 -25 -1 -25 -42 0
-49 -9 -56 -68 -56 -56 0 -93 34 -99 93 -5 42 -3 49 25 76 38 35 69 42 116 26
31 -11 37 -10 52 6 15 16 14 19 -14 33 -40 20 -90 25 -130 12z"/>
<path d="M5928 3942 c-3 -14 -2 -178 1 -259 1 -18 7 -23 26 -23 l25 0 0 106 0
106 82 -106 c70 -90 86 -106 110 -106 l28 0 0 144 c0 139 -1 145 -21 151 -12
4 -24 3 -28 -3 -3 -6 -6 -53 -5 -106 0 -53 -1 -96 -2 -96 -2 0 -40 46 -85 103
-57 72 -87 103 -104 104 -14 1 -24 -5 -27 -15z"/>
<path d="M6620 3810 l0 -150 25 0 c24 0 24 1 27 105 l3 105 80 -105 c67 -87
84 -104 108 -105 l27 0 0 149 0 149 -25 0 c-24 0 -24 -1 -27 -106 l-3 -105
-65 83 c-85 110 -105 130 -130 130 -19 0 -20 -6 -20 -150z"/>
<path d="M7740 3808 l0 -148 95 0 c95 0 95 0 95 25 0 24 -2 25 -69 25 l-68 0
-1 98 c0 161 1 152 -27 150 l-25 -2 0 -148z"/>
<path d="M8036 3953 c-2 -2 -2 -13 1 -24 4 -15 14 -19 48 -19 l42 0 -1 -125
-1 -125 28 0 27 0 0 125 0 125 46 0 c41 0 45 2 42 23 -3 21 -7 22 -115 23 -62
1 -114 -1 -117 -3z"/>
<path d="M8430 3808 l0 -151 83 5 c51 3 95 11 115 22 46 24 74 88 66 147 -13
90 -57 121 -181 125 l-83 3 0 -151z m157 92 c35 -13 54 -43 55 -88 2 -68 -38
-102 -117 -102 l-45 0 0 100 0 100 39 0 c21 0 52 -5 68 -10z"/>
</g>
</svg>
